<?xml version="1.0" encoding="UTF-8"?>
<svg width="127px" height="127px" viewBox="0 0 127 127" version="1.1" xmlns="http://www.w3.org/2000/svg" xmlns:xlink="http://www.w3.org/1999/xlink">
    <title>Slack_icon_2019 (1)</title>
    <g id="页面-1" stroke="none" stroke-width="1" fill="none" fill-rule="evenodd">
        <g id="Slack_icon_2019-(1)" transform="translate(0.700000, 0.600000)" fill-rule="nonzero">
            <path d="M26.5,79.4 C26.5,86.7 20.6,92.6 13.3,92.6 C6,92.6 0.1,86.7 0.1,79.4 C0.1,72.1 6,66.2 13.3,66.2 L26.5,66.2 L26.5,79.4 Z M33.1,79.4 C33.1,72.1 39,66.2 46.3,66.2 C53.6,66.2 59.5,72.1 59.5,79.4 L59.5,112.4 C59.5,119.7 53.6,125.6 46.3,125.6 C39,125.6 33.1,119.7 33.1,112.4 L33.1,79.4 Z" id="形状" fill="#E01E5A"></path>
            <path d="M46.3,26.4 C39,26.4 33.1,20.5 33.1,13.2 C33.1,5.9 39,0 46.3,0 C53.6,0 59.5,5.9 59.5,13.2 L59.5,26.4 L46.3,26.4 Z M46.3,33.1 C53.6,33.1 59.5,39 59.5,46.3 C59.5,53.6 53.6,59.5 46.3,59.5 L13.2,59.5 C5.9,59.5 -3.55271368e-15,53.6 -3.55271368e-15,46.3 C-3.55271368e-15,39 5.9,33.1 13.2,33.1 L46.3,33.1 Z" id="形状" fill="#36C5F0"></path>
            <path d="M99.2,46.3 C99.2,39 105.1,33.1 112.4,33.1 C119.7,33.1 125.6,39 125.6,46.3 C125.6,53.6 119.7,59.5 112.4,59.5 L99.2,59.5 L99.2,46.3 Z M92.6,46.3 C92.6,53.6 86.7,59.5 79.4,59.5 C72.1,59.5 66.2,53.6 66.2,46.3 L66.2,13.2 C66.2,5.9 72.1,0 79.4,0 C86.7,0 92.6,5.9 92.6,13.2 L92.6,46.3 L92.6,46.3 Z" id="形状" fill="#2EB67D"></path>
            <path d="M79.4,99.2 C86.7,99.2 92.6,105.1 92.6,112.4 C92.6,119.7 86.7,125.6 79.4,125.6 C72.1,125.6 66.2,119.7 66.2,112.4 L66.2,99.2 L79.4,99.2 Z M79.4,92.6 C72.1,92.6 66.2,86.7 66.2,79.4 C66.2,72.1 72.1,66.2 79.4,66.2 L112.5,66.2 C119.8,66.2 125.7,72.1 125.7,79.4 C125.7,86.7 119.8,92.6 112.5,92.6 L79.4,92.6 Z" id="形状" fill="#ECB22E"></path>
        </g>
    </g>
</svg>