<svg enable-background="new 0 0 32 32" height="25" viewBox="0 0 32 32" width="32" xmlns="http://www.w3.org/2000/svg"><g fill="#ffd561"><path d="m12 8h1v14h-1z"/><path d="m10 8h1v14h-1z"/><path d="m14 8v14h14v-12s-1-2-2-2z"/></g><path d="m28.5 6h-25c-.83 0-1.5.67-1.5 1.5v16c0 .83.67 1.5 1.5 1.5h11.5v2h-5v1h12v-1h-5v-2h11.5c.83 0 1.5-.67 1.5-1.5v-16c0-.83-.67-1.5-1.5-1.5zm.5 15h-23v1h23v1.5c0 .28-.22.5-.5.5h-25c-.28 0-.5-.22-.5-.5v-16c0-.28.22-.5.5-.5h25c.28 0 .5.22.5.5z" fill="#2d2220"/><path d="m28 9.5v10h-1v-10c0-.4-.28-.49-.51-.5h-20.99c-.4 0-.49.27-.5.51v12.49h-1v-12.5c0-.6.4-1.5 1.5-1.5h21c.6 0 1.5.4 1.5 1.5z" fill="#2d2220"/><path d="m11 28h8v1h-8z" fill="#ffd561"/><path d="m20 28h3v1h-3z" fill="#ffd561"/></svg>